<?xml version="1.0" encoding="UTF-8"?>
<!-- Generated by Pixelmator Pro 3.7.1 -->
<svg width="256" height="256" viewBox="0 0 256 256" xmlns="http://www.w3.org/2000/svg">
    <g id="g1">
        <path id="-" fill="#eef2f3" fill-rule="evenodd" stroke="none" d="M 12 189 C 12 216.614227 34.385765 239 62 239 L 193 239 C 220.614243 239 243 216.614227 243 189 L 243 67 C 243 39.385757 220.614243 17 193 17 L 62 17 C 34.385765 17 12 39.385757 12 67 Z"/>
        <path id="path1" fill="#f74843" stroke="none" d="M 127.999748 23.063538 C 162.177383 23.063538 166.225388 23.193604 179.722473 23.809418 C 192.202347 24.378998 198.979858 26.464218 203.490738 28.216644 C 209.464935 30.538651 213.729401 33.312866 218.208267 37.791733 C 222.687134 42.270599 225.461349 46.535065 227.782837 52.509262 C 229.535782 57.020142 231.621002 63.797653 232.190582 76.277008 C 232.806396 89.774597 232.936462 93.822617 232.936462 128.000259 C 232.936462 162.177887 232.806396 166.225906 232.190582 179.722977 C 231.621002 192.202866 229.535782 198.980362 227.782837 203.491241 C 225.461349 209.465439 222.687134 213.729904 218.208267 218.208771 C 213.729401 222.687653 209.464935 225.461853 203.490738 227.783356 C 198.979858 229.536285 192.202347 231.621521 179.722473 232.191086 C 166.227432 232.8069 162.179413 232.936981 127.999748 232.936981 C 93.820076 232.936981 89.772064 232.8069 76.277016 232.191086 C 63.797142 231.621521 57.019638 229.536285 52.509262 227.783356 C 46.534554 225.461853 42.270096 222.687653 37.791225 218.208771 C 33.312351 213.729904 30.538141 209.465439 28.216648 203.491241 C 26.463715 198.980362 24.378485 192.202866 23.808908 179.723495 C 23.193094 166.225906 23.063023 162.177887 23.063023 128.000259 C 23.063023 93.822617 23.193094 89.774597 23.808908 76.277527 C 24.378485 63.797653 26.463715 57.020142 28.216648 52.509262 C 30.538141 46.535065 33.312351 42.270599 37.791225 37.791733 C 42.270096 33.312866 46.534554 30.538651 52.509262 28.216644 C 57.019638 26.464218 63.797142 24.378998 76.276505 23.809418 C 89.774101 23.193604 93.822105 23.063538 127.999748 23.063538 M 127.999748 0 C 93.236778 0 88.878326 0.147354 75.225761 0.770279 C 61.601147 1.392181 52.296879 3.555664 44.154629 6.720093 C 35.737495 9.991211 28.599245 14.367966 21.483349 21.483856 C 14.367454 28.599747 9.990707 35.738007 6.71958 44.155136 C 3.555153 52.297394 1.391677 61.601654 0.769767 75.226273 C 0.14684 88.878326 0 93.237289 0 128.000259 C 0 162.763214 0.14684 167.122177 0.769767 180.774231 C 1.391677 194.398849 3.555153 203.703125 6.71958 211.845367 C 9.990707 220.261993 14.367454 227.400757 21.483349 234.516647 C 28.599245 241.632553 35.737495 246.009293 44.154629 249.280426 C 52.296879 252.444839 61.601147 254.608322 75.225761 255.23024 C 88.878326 255.853165 93.236778 256 127.999748 256 C 162.762711 256 167.121674 255.853165 180.773727 255.23024 C 194.398346 254.608322 203.702606 252.444839 211.844864 249.280426 C 220.261993 246.009293 227.400253 241.632553 234.516144 234.516647 C 241.632034 227.400757 246.008789 220.262497 249.279907 211.845367 C 252.444336 203.703125 254.607819 194.398849 255.229721 180.774231 C 255.852646 167.122177 256 162.763214 256 128.000259 C 256 93.237289 255.852646 88.878326 255.229721 75.226273 C 254.607819 61.601654 252.444336 52.297394 249.279907 44.155136 C 246.008789 35.738007 241.632034 28.599747 234.516144 21.483856 C 227.400253 14.367966 220.261993 9.991211 211.844864 6.720093 C 203.702606 3.555664 194.398346 1.392181 180.773727 0.770279 C 167.121674 0.147354 162.762711 0 127.999748 0 Z M 127.999748 62.270309 C 91.698265 62.270309 62.269802 91.698761 62.269802 128.000259 C 62.269802 164.301743 91.698265 193.730194 127.999748 193.730194 C 164.301224 193.730194 193.729691 164.301743 193.729691 128.000259 C 193.729691 91.698761 164.301224 62.270309 127.999748 62.270309 Z M 127.999748 170.667175 C 104.435738 170.667175 85.332825 151.564255 85.332825 128.000259 C 85.332825 104.436249 104.435738 85.333344 127.999748 85.333344 C 151.563751 85.333344 170.666672 104.436249 170.666672 128.000259 C 170.666672 151.564255 151.563751 170.667175 127.999748 170.667175 Z M 211.68634 59.673431 C 211.68634 68.156616 204.809753 75.033707 196.326569 75.033707 C 187.843384 75.033707 180.966293 68.156616 180.966293 59.673431 C 180.966293 51.190247 187.843384 44.31366 196.326569 44.31366 C 204.809753 44.31366 211.68634 51.190247 211.68634 59.673431 Z"/>
    </g>
</svg>
