<?xml version="1.0" encoding="UTF-8"?>
<!-- Generated by Pixelmator Pro 3.7.1 -->
<svg width="77" height="78" viewBox="0 0 77 78" xmlns="http://www.w3.org/2000/svg">
    <path id="path1" fill="#f74843" stroke="none" d="M 0.883286 6.245361 C 0.883286 3.22963 3.39 0.783432 6.48234 0.783432 L 71.051498 0.783432 C 74.143799 0.783432 76.650597 3.22963 76.650597 6.245361 L 76.650597 71.569504 C 76.650597 74.586197 74.143799 77.031403 71.051498 77.031403 L 6.48234 77.031403 C 3.39 77.031403 0.883286 74.586197 0.883286 71.569504 L 0.883286 6.245361 Z"/>
    <path id="path2" fill="#ffffff" fill-rule="evenodd" stroke="none" d="M 23.8507 64.610901 L 23.8507 30.180702 L 12.4067 30.180702 L 12.4067 64.610901 L 23.8507 64.610901 Z M 18.1287 25.479797 C 22.1194 25.479797 24.6033 22.835899 24.6033 19.531898 C 24.5289 16.1535 22.1194 13.583 18.204399 13.583 C 14.2897 13.583 11.7302 16.1535 11.7302 19.531898 C 11.7302 22.835899 14.2136 25.479797 18.0541 25.479797 L 18.1287 25.479797 Z"/>
    <path id="path3" fill="#ffffff" fill-rule="evenodd" stroke="none" d="M 30.183001 64.610901 L 41.6269 64.610901 L 41.6269 45.383598 C 41.6269 44.354599 41.701302 43.326599 42.003399 42.591 C 42.8307 40.535 44.713699 38.405701 47.875198 38.405701 C 52.016201 38.405701 53.672699 41.563 53.672699 46.191502 L 53.672699 64.610901 L 65.115601 64.610901 L 65.115601 44.869099 C 65.115601 34.293701 59.469799 29.3727 51.940601 29.3727 C 45.766899 29.3727 43.056599 32.823502 41.5508 35.173901 L 41.627201 35.173901 L 41.627201 30.180702 L 30.1833 30.180702 C 30.3335 33.4114 30.183001 64.610901 30.183001 64.610901 Z"/>
</svg>
