<svg width="235" height="234" viewBox="0 0 235 234" fill="none" xmlns="http://www.w3.org/2000/svg">
<path d="M234.227 0.06604H0.433052V233.732H234.227V0.06604Z" fill="#ED1A3A"/>
<path d="M196.469 23.3438C191.096 23.3438 187.027 26.9063 185 31.1875L155.562 79.625C153.521 84.1047 152.031 89.1374 152.031 92.4688C152.031 95.4457 152.44 98.0759 153.531 100.5L185.375 176.531H61.7188C57.2674 176.531 53.5937 172.063 53.5938 167.938V36.9688C52.6581 19.0642 26.9108 19.0739 26.3438 37.5313L26.9062 176.531C26.9062 191.643 38.5953 203.75 53.5938 203.75H222.188L181.094 98.6562C179.96 94.7436 179.454 91.1952 182.219 86.5313L209.406 42.3438C209.789 41.4223 210.344 37.5262 210.344 36.4063C209.805 28.3825 203.514 22.9894 196.469 23.3438ZM129.719 23.4063C123.106 23.4506 116.5 28.0165 116.5 36.9688V130.688C116.5 144.297 98.1875 143.177 98.1875 130.688V36.9688C98.1875 19.0642 71.6875 19.0642 71.6875 36.9688V131.438C71.6875 153.042 87.8283 167.406 107.094 167.406C126.884 167.406 142.969 153.042 142.969 131.438V36.9688C142.969 27.8393 136.332 23.362 129.719 23.4063Z" fill="white"/>
</svg>
