<svg width="275" height="229" viewBox="0 0 275 229" fill="none" xmlns="http://www.w3.org/2000/svg">
<path d="M11.3525 211.24L59.3074 141.778L71.8456 156.119L26.6431 221.548L11.3525 211.24ZM70.1637 126.174L82.7019 140.534L113.837 95.4757L154.969 155.572L162.614 166.766L170.259 155.572L204.376 106.104L191.857 91.7821L162.729 134.089L121.578 73.9925L113.933 62.7986L106.287 73.9548L70.1637 126.174ZM202.656 76.0466L249.617 7.92227L264.907 18.1739L215.213 90.3687L202.656 76.0466Z" fill="#1E1E1E"/>
<path fill-rule="evenodd" clip-rule="evenodd" d="M113.532 58.8445C124.679 58.8445 133.715 67.7416 133.715 78.7167C133.715 89.6918 124.679 98.5889 113.532 98.5889C102.385 98.5889 93.3481 89.6918 93.3481 78.7167C93.3586 67.7459 102.389 58.8548 113.532 58.8445Z" fill="white"/>
<path d="M112.91 48.9836C124.888 48.9705 135.694 56.0654 140.285 66.9576C144.875 77.8498 142.346 90.3922 133.877 98.7319C126.386 106.107 115.468 108.987 105.235 106.288C95.0025 103.588 87.0098 95.7193 84.2679 85.6451C81.526 75.5709 84.4516 64.8218 91.9425 57.447C97.4986 51.9668 105.045 48.8937 112.91 48.9085V48.9836ZM120.744 70.433C116.412 66.2039 109.427 66.2039 105.095 70.433C101.922 73.5564 100.972 78.2542 102.689 82.3356C104.406 86.417 108.451 89.0782 112.938 89.0782C117.426 89.0782 121.471 86.417 123.188 82.3356C124.905 78.2542 123.955 73.5564 120.782 70.433H120.744Z" fill="#FB9529"/>
<path d="M161.468 169.384C172.615 169.384 181.652 160.486 181.652 149.511C181.652 138.536 172.615 129.639 161.468 129.639C150.321 129.639 141.285 138.536 141.285 149.511C141.285 160.486 150.321 169.384 161.468 169.384Z" fill="white"/>
<path d="M162.106 121.02C174.084 121.007 184.89 128.102 189.481 138.995C194.072 149.887 191.542 162.429 183.073 170.769C171.493 182.17 152.718 182.17 141.138 170.769C129.558 159.369 129.558 140.884 141.138 129.484C146.699 124.01 154.242 120.939 162.106 120.945V121.02ZM169.94 142.489C165.617 138.239 158.614 138.239 154.291 142.489C150.061 146.775 150.115 153.611 154.412 157.832C158.71 162.052 165.654 162.089 169.997 157.914C172.064 155.856 173.222 153.077 173.219 150.183C173.217 147.293 172.043 144.524 169.959 142.489H169.94Z" fill="#FB9529"/>
<path fill-rule="evenodd" clip-rule="evenodd" d="M245.909 10.4063C254.081 10.3762 261.465 15.2007 264.611 22.6261C267.758 30.0516 266.046 38.6125 260.276 44.3098C254.506 50.0071 245.816 51.7163 238.265 48.6391C230.715 45.5618 225.794 38.3055 225.801 30.2596C225.801 19.3167 234.795 10.4371 245.909 10.4063Z" fill="white"/>
<path d="M245.347 0.470186C257.332 0.457056 268.145 7.55956 272.738 18.4633C277.331 29.3671 274.801 41.9228 266.327 50.2714C254.766 61.684 236.002 61.705 224.415 50.3183C212.829 38.9316 212.807 20.4491 224.368 9.03651C229.92 3.53826 237.474 0.454065 245.347 0.470186ZM253.186 21.9611C248.853 17.7048 241.841 17.7048 237.509 21.9611C234.365 25.0959 233.439 29.7832 235.16 33.8504C236.881 37.9176 240.912 40.5699 245.385 40.5779C248.331 40.5981 251.161 39.4546 253.243 37.4034C255.326 35.3521 256.487 32.5642 256.466 29.6633C256.459 26.7678 255.278 23.995 253.186 21.9611Z" fill="#FB9529"/>
<path fill-rule="evenodd" clip-rule="evenodd" d="M30.293 219.064C22.1262 219.071 14.7597 214.233 11.6309 206.805C8.50207 199.378 10.2277 190.826 16.0024 185.14C21.7772 179.455 30.4629 177.756 38.0066 180.836C45.5502 183.917 50.4649 191.17 50.4573 199.211C50.4573 210.175 41.4294 219.064 30.293 219.064Z" fill="white"/>
<path d="M29.5681 229C21.7167 228.968 14.2027 225.859 8.69047 220.363C3.12659 214.904 0 207.493 0 199.766C0 192.038 3.12659 184.628 8.69047 179.168C14.2443 173.699 21.783 170.626 29.6445 170.626C37.5059 170.626 45.0446 173.699 50.5985 179.168C56.1623 184.628 59.2889 192.038 59.2889 199.766C59.2889 207.493 56.1623 214.904 50.5985 220.363C45.041 225.864 37.4738 228.947 29.5872 228.925L29.5681 229ZM21.6984 207.539C25.451 211.27 31.364 211.871 35.8141 208.974C40.2642 206.078 42.0089 200.491 39.9791 195.639C37.9493 190.787 32.7117 188.023 27.4758 189.041C22.2399 190.059 18.4675 194.575 18.4703 199.822C18.4635 202.713 19.6245 205.489 21.6984 207.539Z" fill="#FB9529"/>
</svg>
