<svg width="90" height="51" viewBox="0 0 90 51" fill="none" xmlns="http://www.w3.org/2000/svg">
<path d="M0 51V19.1H34.5V0H89.5V51H0Z" fill="#FF0508"/>
<path d="M18.7 40.9H18L14.5 26.3H7.89999V44H11.3V29.4H12L15.5 44H21.3L24.8 29.4H25.5V44H28.9V26.3H22.3L18.7 40.9ZM53.4 44H65.5V40.9H56.9V36.5H64.3V33.5H56.9V29.4H65.5V26.3H53.4V44ZM41.2 41.4C37.3 41.4 35.5 38.7 35.5 35.1C35.5 31.5 37.3 28.9 41.2 28.9C45.1 28.9 46.9 31.6 46.9 35.1C46.9 38.6 45.1 41.4 41.2 41.4ZM41.2 25.8C35.3 25.8 31.9 29.6 31.9 35.1C31.9 40.6 35.3 44.5 41.2 44.5C47.1 44.5 50.5 40.6 50.5 35.1C50.5 29.6 47.1 25.8 41.2 25.8ZM67.9 44H71.6L75.7 37L80.2 44H83.9L78 34.7L83.6 26.3H79.8L75.9 32.6L72 26.3H68.2L73.6 34.6L67.9 44Z" fill="white"/>
</svg>
