<svg width="100" height="90" viewBox="0 0 100 90" fill="none" xmlns="http://www.w3.org/2000/svg">
<path d="M92.5654 54.4233C90.0367 54.4233 87.9844 56.44 87.9844 58.9333C87.9844 61.42 90.0367 63.44 92.5654 63.44C95.094 63.44 97.1463 61.42 97.1463 58.9333C97.1463 56.44 95.0974 54.4233 92.5654 54.4233ZM86.755 66.1267C84.6095 66.1267 82.8704 67.84 82.8704 69.95C82.8704 72.0633 84.6095 73.7767 86.755 73.7767C88.8973 73.7767 90.6364 72.0633 90.6364 69.95C90.6364 67.84 88.8973 66.1267 86.755 66.1267ZM78.1262 75.2967C77.6884 75.2927 77.2541 75.3751 76.8482 75.5392C76.4422 75.7033 76.0726 75.9458 75.7604 76.2529C75.4482 76.56 75.1995 76.9257 75.0287 77.329C74.8578 77.7323 74.7681 78.1653 74.7646 78.6033C74.7676 79.0414 74.8569 79.4745 75.0274 79.878C75.1979 80.2814 75.4461 80.6473 75.758 80.9547C76.0699 81.2621 76.4393 81.505 76.8451 81.6695C77.2508 81.834 77.685 81.9168 78.1228 81.9133C78.5609 81.9173 78.9955 81.8348 79.4016 81.6705C79.8078 81.5062 80.1776 81.2634 80.4898 80.9559C80.802 80.6485 81.0506 80.2824 81.2213 79.8787C81.392 79.475 81.4814 79.0416 81.4844 78.6033C81.4809 78.1653 81.3912 77.7323 81.2203 77.329C81.0495 76.9257 80.8008 76.56 80.4886 76.2529C80.1764 75.9458 79.8068 75.7033 79.4009 75.5392C78.9949 75.3751 78.5606 75.2927 78.1228 75.2967H78.1262ZM68.4379 81.4667C68.082 81.4631 67.729 81.5299 67.399 81.6631C67.069 81.7963 66.7685 81.9933 66.5148 82.2429C66.261 82.4925 66.0589 82.7897 65.9201 83.1175C65.7813 83.4453 65.7086 83.7973 65.7059 84.1533C65.7059 85.6367 66.9286 86.84 68.4379 86.84C69.9471 86.84 71.1631 85.6367 71.1631 84.1533C71.1605 83.7979 71.0879 83.4464 70.9496 83.119C70.8112 82.7917 70.6097 82.4947 70.3566 82.2453C70.1036 81.9958 69.8039 81.7986 69.4747 81.665C69.1454 81.5314 68.7931 81.464 68.4379 81.4667ZM58.9095 84.7333C58.2947 84.7289 57.7033 84.9685 57.2649 85.3997C56.8265 85.8308 56.5768 86.4183 56.5707 87.0333C56.5707 88.31 57.6168 89.3433 58.9095 89.3433C60.2021 89.3433 61.2516 88.31 61.2516 87.0367C61.2494 86.7313 61.1871 86.4293 61.0681 86.1481C60.9492 85.8668 60.776 85.6117 60.5585 85.3975C60.341 85.1833 60.0834 85.014 59.8004 84.8995C59.5174 84.785 59.2147 84.7307 58.9095 84.7333ZM49.9874 86.03C49.7249 86.0278 49.4645 86.0774 49.2212 86.1758C48.9778 86.2743 48.7562 86.4198 48.569 86.604C48.3819 86.7881 48.2328 87.0074 48.1303 87.2492C48.0278 87.491 47.974 87.7507 47.9718 88.0133C47.9735 88.2763 48.0271 88.5363 48.1294 88.7785C48.2316 89.0207 48.3807 89.2403 48.5679 89.4248C48.7551 89.6094 48.9768 89.7551 49.2204 89.8538C49.464 89.9525 49.7246 90.0022 49.9874 90C50.2499 90.0018 50.5102 89.9518 50.7534 89.8529C50.9966 89.754 51.218 89.6081 51.4048 89.4237C51.5917 89.2392 51.7404 89.0197 51.8425 88.7777C51.9445 88.5357 51.998 88.276 51.9997 88.0133C51.9953 87.4835 51.7809 86.977 51.4037 86.6052C51.0264 86.2333 50.517 86.0264 49.9874 86.03ZM41.0487 84.7333C40.7435 84.7307 40.4407 84.7883 40.1578 84.9028C39.8748 85.0174 39.6172 85.1866 39.3997 85.4008C39.1821 85.6151 39.009 85.8701 38.89 86.1514C38.7711 86.4326 38.7088 86.7346 38.7066 87.04C38.7066 88.3133 39.7561 89.3467 41.0487 89.3467C42.3414 89.3467 43.3908 88.3133 43.3908 87.04C43.3887 86.7346 43.3263 86.4326 43.2074 86.1514C43.0885 85.8701 42.9153 85.6151 42.6978 85.4008C42.4802 85.1866 42.2226 85.0174 41.9397 84.9028C41.6567 84.7883 41.354 84.7307 41.0487 84.7333ZM31.5203 81.4667C30.0211 81.4667 28.8017 82.6633 28.8017 84.14C28.8017 85.6167 30.0211 86.82 31.5203 86.82C33.0229 86.82 34.2389 85.62 34.2389 84.14C34.2389 82.66 33.0229 81.4633 31.5203 81.4633V81.4667ZM21.8254 75.3067C20.9429 75.3004 20.094 75.6448 19.465 76.2641C18.8361 76.8834 18.4783 77.7271 18.4704 78.61C18.4775 79.4935 18.8348 80.338 19.4639 80.9581C20.0929 81.5781 20.9423 81.9229 21.8254 81.9167C22.2629 81.9202 22.6968 81.8374 23.1023 81.6732C23.5079 81.5089 23.8771 81.2663 24.189 80.9592C24.5008 80.6522 24.7492 80.2867 24.9198 79.8836C25.0905 79.4805 25.1801 79.0477 25.1836 78.61C25.1757 77.7265 24.8175 76.8823 24.1878 76.2629C23.5581 75.6435 22.7084 75.2996 21.8254 75.3067ZM13.2065 66.13C11.0609 66.13 9.3185 67.8467 9.3185 69.96C9.3185 72.0733 11.0609 73.7867 13.2065 73.7867C15.352 73.7867 17.0945 72.0733 17.0945 69.96C17.0945 67.8467 15.352 66.13 13.2065 66.13ZM7.39283 54.4133C4.86748 54.4133 2.81854 56.43 2.81854 58.92C2.81854 61.41 4.86748 63.4267 7.39283 63.4267C9.92486 63.4267 11.9705 61.41 11.9705 58.92C11.9705 56.43 9.92152 54.4133 7.39283 54.4133ZM5.29392 39.7933C2.36877 39.7933 0 42.1267 0 45.0067C0 47.8867 2.36877 50.22 5.29725 50.22C8.21907 50.22 10.5878 47.8867 10.5878 45.0067C10.5878 42.1267 8.21907 39.7933 5.29392 39.7933ZM7.39283 26.5867C4.86748 26.5867 2.81854 28.6033 2.81854 31.09C2.81854 33.5767 4.86748 35.5933 7.39283 35.5933C9.91819 35.5933 11.9638 33.5767 11.9638 31.0933C11.9638 28.6033 9.91819 26.5867 7.39283 26.5867ZM13.1998 16.22C11.0543 16.22 9.31184 17.9367 9.31184 20.0533C9.31184 22.17 11.0543 23.88 13.1998 23.88C15.3487 23.88 17.0878 22.1667 17.0878 20.05C17.0878 17.9333 15.3487 16.22 13.1998 16.22ZM21.832 8.09C20.9496 8.08378 20.1007 8.42812 19.4717 9.04743C18.8427 9.66674 18.485 10.5104 18.4771 11.3933C18.4841 12.2768 18.8415 13.1214 19.4705 13.7414C20.0996 14.3614 20.949 14.7062 21.832 14.7C22.2695 14.7035 22.7035 14.6208 23.109 14.4565C23.5146 14.2922 23.8838 14.0496 24.1957 13.7426C24.5075 13.4355 24.7558 13.07 24.9265 12.6669C25.0972 12.2638 25.1868 11.8311 25.1903 11.3933C25.1824 10.5098 24.8242 9.66565 24.1945 9.04624C23.5648 8.42684 22.715 8.0829 21.832 8.09ZM31.5237 3.18333C30.8085 3.17801 30.1205 3.45692 29.6108 3.9588C29.101 4.46068 28.8112 5.14449 28.8051 5.86C28.8112 6.57551 29.101 7.25932 29.6108 7.7612C30.1205 8.26308 30.8085 8.54199 31.5237 8.53667C32.2382 8.54111 32.9254 8.2618 33.4344 7.76001C33.9434 7.25823 34.2328 6.57493 34.2389 5.86C34.2363 5.50587 34.164 5.15571 34.0261 4.82954C33.8883 4.50337 33.6875 4.20756 33.4354 3.959C33.1832 3.71045 32.8846 3.51402 32.5566 3.38093C32.2286 3.24784 31.8776 3.1807 31.5237 3.18333ZM41.0421 0.66C39.7494 0.66 38.6999 1.69333 38.6999 2.96667C38.6999 4.24 39.7494 5.27333 41.0421 5.27333C42.3414 5.27333 43.3875 4.24 43.3875 2.96667C43.3875 1.69333 42.3381 0.66 41.0421 0.66ZM49.9674 0C48.8547 0 47.9551 0.886667 47.9551 1.98C47.9551 3.07333 48.8547 3.96333 49.9674 3.96333C51.0769 3.96333 51.9797 3.07333 51.9797 1.98C51.9797 0.886667 51.0802 0 49.9674 0ZM58.9195 0.666667C58.6145 0.664029 58.312 0.721515 58.0293 0.835843C57.7465 0.950171 57.4891 1.1191 57.2716 1.33299C57.0541 1.54687 56.8808 1.80153 56.7617 2.08241C56.6426 2.36329 56.58 2.66489 56.5773 2.97C56.5773 4.24333 57.6268 5.27333 58.9195 5.27333C60.2088 5.27333 61.2549 4.24 61.2549 2.97333C61.2505 2.35772 61.0021 1.76903 60.5642 1.33654C60.1263 0.904045 59.5348 0.663118 58.9195 0.666667ZM68.4379 3.18667C66.9386 3.18667 65.7193 4.38667 65.7193 5.86C65.7193 7.33667 66.9353 8.53333 68.4379 8.53333C69.9371 8.53333 71.1531 7.33667 71.1531 5.86C71.147 5.14537 70.8575 4.46242 70.3484 3.96116C69.8393 3.4599 69.1521 3.18134 68.4379 3.18667ZM78.1162 8.1C77.6791 8.09648 77.2456 8.17914 76.8405 8.34325C76.4353 8.50736 76.0664 8.7497 75.7549 9.05645C75.4434 9.36319 75.1953 9.72833 75.0248 10.131C74.8543 10.5337 74.7647 10.966 74.7612 11.4033C74.7612 13.2267 76.2605 14.7033 78.1162 14.7033C78.9978 14.7095 79.8458 14.3656 80.4741 13.7469C81.1025 13.1282 81.4598 12.2854 81.4678 11.4033C81.4678 9.58 79.9685 8.1 78.1162 8.1ZM86.745 16.2233C85.7212 16.2162 84.7364 16.6159 84.0068 17.3346C83.2772 18.0533 82.8625 19.0323 82.8537 20.0567C82.8537 22.1733 84.5995 23.89 86.7484 23.89C87.7722 23.8971 88.757 23.4974 89.4866 22.7787C90.2162 22.06 90.6309 21.081 90.6397 20.0567C90.6309 19.0323 90.2162 18.0533 89.4866 17.3346C88.757 16.6159 87.7689 16.2162 86.745 16.2233ZM92.562 26.5733C90.04 26.5733 87.9911 28.59 87.9911 31.0733C87.9911 33.5633 90.04 35.58 92.562 35.58C95.0907 35.58 97.1363 33.5633 97.1363 31.0767C97.1363 28.59 95.0907 26.5733 92.562 26.5733ZM71.5796 51.89C71.0394 51.8864 70.5198 52.0975 70.1351 52.4769C69.7503 52.8562 69.5317 53.3729 69.5273 53.9133C69.5273 55.0333 70.4468 55.9367 71.5796 55.9367C72.7156 55.9367 73.6352 55.0333 73.6352 53.9133C73.633 53.6454 73.5781 53.3806 73.4736 53.1339C73.3691 52.8872 73.2171 52.6636 73.0262 52.4757C72.8353 52.2878 72.6093 52.1394 72.3611 52.0389C72.1129 51.9384 71.8473 51.8878 71.5796 51.89ZM66.4489 59.39C66.1811 59.3878 65.9156 59.4384 65.6673 59.5389C65.4191 59.6394 65.1931 59.7878 65.0022 59.9757C64.8114 60.1636 64.6593 60.3872 64.5548 60.6339C64.4504 60.8806 64.3955 61.1454 64.3933 61.4133C64.3933 62.53 65.3128 63.4367 66.4489 63.4367C67.585 63.4367 68.5045 62.53 68.5045 61.4133C68.5023 61.1454 68.4474 60.8806 68.3429 60.6339C68.2384 60.3872 68.0864 60.1636 67.8955 59.9757C67.7047 59.7878 67.4787 59.6394 67.2304 59.5389C66.9822 59.4384 66.7166 59.3878 66.4489 59.39ZM58.8428 64.2067C57.6101 64.2067 56.6107 65.19 56.6107 66.4033C56.6107 67.6167 57.6101 68.6 58.8428 68.6C60.0755 68.6 61.075 67.6167 61.075 66.4C61.075 65.19 60.0755 64.2067 58.8428 64.2067ZM49.8475 65.5167C49.4556 65.5132 49.0669 65.5869 48.7036 65.7338C48.3403 65.8807 48.0094 66.0978 47.73 66.3727C47.4506 66.6477 47.2281 66.975 47.0752 67.336C46.9224 67.697 46.8421 68.0846 46.8391 68.4767C46.8391 70.11 48.185 71.4333 49.8442 71.4333C51.5033 71.4333 52.8493 70.1067 52.8493 68.4767C52.8467 68.0848 52.7668 67.6972 52.6143 67.3362C52.4618 66.9752 52.2396 66.6479 51.9604 66.373C51.6813 66.098 51.3507 65.8808 50.9875 65.7339C50.6244 65.587 50.2392 65.5132 49.8475 65.5167ZM40.8755 63.75C38.9898 63.75 37.4639 65.25 37.4639 67.1067C37.4639 68.96 38.9898 70.4633 40.8755 70.4633C42.7578 70.4633 44.2837 68.9633 44.2837 67.1067C44.2837 65.25 42.7578 63.75 40.8755 63.75ZM32.7297 58.0933C30.6408 58.0933 28.9483 59.76 28.9483 61.82C28.9483 63.8767 30.6408 65.5433 32.7297 65.5433C34.8186 65.5433 36.5111 63.8767 36.5111 61.82C36.5111 59.7633 34.8186 58.0933 32.7297 58.0933ZM27.3658 50.5267C26.9518 50.5227 26.5411 50.6005 26.1572 50.7556C25.7732 50.9106 25.4236 51.14 25.1284 51.4304C24.8332 51.7208 24.5981 52.0666 24.4367 52.4481C24.2752 52.8295 24.1905 53.2391 24.1875 53.6533C24.1875 55.38 25.6101 56.7767 27.3625 56.7767C29.1149 56.7767 30.5375 55.3767 30.5375 53.6533C30.5305 52.8176 30.1921 52.0188 29.5968 51.4326C29.0014 50.8463 28.2011 50.5205 27.3658 50.5267ZM26.1065 42.2067C25.7859 42.204 25.468 42.2646 25.1709 42.385C24.8738 42.5054 24.6033 42.6833 24.375 42.9083C24.1466 43.1334 23.9648 43.4013 23.8401 43.6967C23.7153 43.9922 23.6499 44.3093 23.6477 44.63C23.6477 45.9633 24.7472 47.05 26.1065 47.05C26.7527 47.0544 27.3743 46.8021 27.8346 46.3483C28.295 45.8946 28.5566 45.2766 28.5619 44.63C28.5597 44.3096 28.4944 43.9927 28.3699 43.6975C28.2453 43.4023 28.0638 43.1346 27.8358 42.9095C27.6078 42.6845 27.3377 42.5066 27.041 42.386C26.7443 42.2654 26.4267 42.2045 26.1065 42.2067ZM28.2687 34.0767C27.9996 34.0745 27.7327 34.1253 27.4833 34.2263C27.2339 34.3273 27.0068 34.4765 26.815 34.6653C26.6232 34.8541 26.4704 35.0789 26.3654 35.3268C26.2604 35.5746 26.2053 35.8408 26.2031 36.11C26.2031 37.23 27.1293 38.14 28.2687 38.14C28.5376 38.1422 28.8043 38.0913 29.0535 37.9903C29.3028 37.8892 29.5297 37.74 29.7212 37.5512C29.9128 37.3623 30.0652 37.1375 30.1698 36.8897C30.2745 36.6418 30.3292 36.3757 30.3309 36.1067C30.3288 35.8376 30.2736 35.5716 30.1686 35.3239C30.0635 35.0762 29.9107 34.8517 29.7189 34.6631C29.527 34.4746 29.2999 34.3257 29.0505 34.2251C28.8011 34.1245 28.5376 34.074 28.2687 34.0767ZM33.3994 26.6533C32.8592 26.6498 32.3396 26.8609 31.9549 27.2402C31.5701 27.6196 31.3515 28.1362 31.3471 28.6767C31.3471 29.7933 32.2666 30.6967 33.4027 30.6967C34.5354 30.6967 35.455 29.7933 35.455 28.6767C35.4506 28.1362 35.232 27.6196 34.8472 27.2402C34.4624 26.8609 33.9429 26.6498 33.4027 26.6533H33.3994ZM40.9954 21.4533C39.7661 21.4533 38.7666 22.44 38.7666 23.6533C38.7666 24.8667 39.7661 25.85 40.9987 25.85C42.2314 25.85 43.2309 24.8667 43.2309 23.65C43.2309 22.4333 42.2281 21.4533 40.9954 21.4533ZM49.9908 18.6167C49.6022 18.6136 49.2169 18.6871 48.8568 18.833C48.4967 18.9789 48.1688 19.1944 47.8919 19.4671C47.6151 19.7398 47.3946 20.0644 47.2431 20.4224C47.0916 20.7803 47.012 21.1646 47.009 21.5533C47.009 23.1767 48.3416 24.4933 49.9908 24.4933C50.3798 24.4968 50.7658 24.4235 51.1265 24.2776C51.4872 24.1317 51.8156 23.916 52.0929 23.6429C52.3702 23.3698 52.5909 23.0447 52.7424 22.6861C52.8939 22.3276 52.9733 21.9426 52.9759 21.5533C52.9759 19.93 51.6399 18.6167 49.9908 18.6167ZM58.9861 19.59C57.1104 19.59 55.5879 21.09 55.5879 22.9367C55.5879 24.7833 57.1104 26.2833 58.9861 26.2833C60.8651 26.2833 62.3843 24.7833 62.3843 22.9367C62.3843 21.09 60.8651 19.59 58.9861 19.59ZM67.0919 24.4967C64.9996 24.4967 63.3039 26.17 63.3039 28.23C63.3039 30.29 64.9996 31.9633 67.0919 31.9633C69.1841 31.9633 70.8833 30.29 70.8833 28.23C70.8833 26.17 69.1841 24.4967 67.0919 24.4967ZM72.4658 33.2633C72.0525 33.2598 71.6425 33.3378 71.2594 33.4929C70.8763 33.648 70.5275 33.8772 70.2329 34.1673C69.9383 34.4573 69.7038 34.8027 69.5427 35.1835C69.3816 35.5643 69.2971 35.9732 69.2941 36.3867C69.2941 38.11 70.7133 39.5067 72.4658 39.5067C74.2149 39.5067 75.6341 38.1067 75.6341 36.3867C75.6311 35.9734 75.5467 35.5649 75.3858 35.1843C75.2249 34.8036 74.9907 34.4585 74.6965 34.1684C74.4023 33.8784 74.0539 33.6492 73.6711 33.4939C73.2884 33.3386 72.8788 33.2603 72.4658 33.2633ZM64.2101 46.9767C63.1606 46.9767 62.311 47.8133 62.311 48.8433C62.311 49.8733 63.1606 50.71 64.2101 50.71C65.2562 50.71 66.1057 49.8767 66.1057 48.8433C66.1057 47.81 65.2562 46.9767 64.2067 46.9767H64.2101ZM60.5286 52.75C60.1611 52.7469 59.7966 52.8163 59.4559 52.9542C59.1152 53.0921 58.8049 53.2957 58.5429 53.5536C58.2809 53.8114 58.0721 54.1184 57.9287 54.4569C57.7852 54.7955 57.7098 55.159 57.7068 55.5267C57.7068 57.06 58.9728 58.3033 60.5286 58.3033C62.0845 58.3033 63.3472 57.06 63.3472 55.5267C63.341 54.7846 63.0407 54.0754 62.5122 53.5548C61.9837 53.0341 61.2703 52.7447 60.5286 52.75ZM53.2757 56.5267C52.4993 56.5213 51.7525 56.8244 51.1991 57.3693C50.6457 57.9142 50.331 58.6565 50.3239 59.4333C50.3239 61.04 51.6466 62.3433 53.2757 62.3433C54.9049 62.3433 56.2309 61.0433 56.2309 59.4333C56.2238 58.6559 55.9086 57.9131 55.3545 57.3681C54.8004 56.8231 54.0527 56.5204 53.2757 56.5267ZM44.7901 56.3133C44.4489 56.3107 44.1104 56.3753 43.7941 56.5036C43.4778 56.6318 43.1899 56.8211 42.9467 57.0607C42.7035 57.3003 42.5099 57.5854 42.3769 57.8999C42.2439 58.2143 42.1741 58.5519 42.1715 58.8933C42.1776 59.5823 42.4569 60.2407 42.9479 60.7238C43.4389 61.2069 44.1015 61.4753 44.7901 61.47C45.4788 61.4753 46.1413 61.2069 46.6323 60.7238C47.1233 60.2407 47.4026 59.5823 47.4088 58.8933C47.4061 58.5519 47.3363 58.2143 47.2033 57.8999C47.0703 57.5854 46.8767 57.3003 46.6335 57.0607C46.3904 56.8211 46.1024 56.6318 45.7861 56.5036C45.4698 56.3753 45.1314 56.3107 44.7901 56.3133ZM38.4834 52.1033C38.2331 52.1011 37.9849 52.1483 37.7528 52.2421C37.5208 52.3359 37.3095 52.4745 37.131 52.65C36.9525 52.8255 36.8103 53.0344 36.7125 53.2649C36.6147 53.4954 36.5632 53.7429 36.561 53.9933C36.561 55.04 37.4206 55.8867 38.4834 55.8867C38.7339 55.8889 38.9824 55.8416 39.2147 55.7476C39.447 55.6536 39.6584 55.5147 39.837 55.3388C40.0155 55.163 40.1577 54.9536 40.2553 54.7228C40.3528 54.4919 40.404 54.244 40.4057 53.9933C40.4035 53.7429 40.3521 53.4954 40.2543 53.2649C40.1565 53.0344 40.0143 52.8255 39.8358 52.65C39.6573 52.4745 39.446 52.3359 39.2139 52.2421C38.9819 52.1483 38.7336 52.1011 38.4834 52.1033ZM35.978 46.6467C35.7964 46.6453 35.6164 46.6798 35.4481 46.7481C35.2799 46.8164 35.1267 46.9172 34.9974 47.0448C34.8681 47.1723 34.7652 47.324 34.6945 47.4914C34.6238 47.6587 34.5867 47.8383 34.5854 48.02C34.5854 48.7767 35.2117 49.3933 35.978 49.3933C36.1601 49.3955 36.3409 49.3617 36.5099 49.2938C36.679 49.2259 36.8329 49.1252 36.9629 48.9976C37.0929 48.87 37.1965 48.7179 37.2676 48.5502C37.3387 48.3824 37.376 48.2022 37.3773 48.02C37.376 47.8378 37.3387 47.6576 37.2676 47.4898C37.1965 47.322 37.0929 47.17 36.9629 47.0424C36.8329 46.9148 36.679 46.8141 36.5099 46.7462C36.3409 46.6783 36.1601 46.6445 35.978 46.6467ZM35.8348 39.5367C35.5874 39.534 35.342 39.5803 35.1126 39.6727C34.8832 39.7652 34.6743 39.9021 34.4979 40.0755C34.3214 40.2489 34.181 40.4555 34.0845 40.6833C33.988 40.9112 33.9375 41.1559 33.9357 41.4033C33.9357 42.4333 34.7853 43.27 35.8348 43.27C36.8809 43.27 37.7271 42.4333 37.7271 41.4033C37.7271 40.37 36.8809 39.5367 35.8348 39.5367ZM39.5262 31.9267C38.7869 31.9213 38.0756 32.2096 37.5485 32.7283C37.0213 33.247 36.7213 33.9536 36.7143 34.6933C36.7143 36.2267 37.9737 37.4667 39.5262 37.4667C40.2661 37.472 40.9778 37.1832 41.505 36.6639C42.0323 36.1445 42.3319 35.4369 42.3381 34.6967C42.3319 33.9564 42.0323 33.2489 41.505 32.7295C40.9778 32.2101 40.2661 31.9213 39.5262 31.9267ZM46.7358 27.88C45.1033 27.88 43.7773 29.1833 43.7773 30.7933C43.7773 32.4033 45.1 33.7033 46.7358 33.7033C48.3683 33.7033 49.6909 32.4033 49.6909 30.7933C49.6909 29.1833 48.3683 27.88 46.7358 27.88ZM55.2447 28.81C54.9029 28.8065 54.5637 28.8705 54.2467 28.9983C53.9296 29.1261 53.6409 29.3153 53.397 29.555C53.1531 29.7946 52.9589 30.0801 52.8255 30.395C52.692 30.7099 52.622 31.048 52.6194 31.39C52.6194 32.8167 53.7955 33.9733 55.2447 33.9733C55.5864 33.976 55.9253 33.9112 56.242 33.7828C56.5587 33.6544 56.847 33.4649 57.0905 33.225C57.3339 32.9851 57.5278 32.6996 57.661 32.3847C57.7942 32.0699 57.8641 31.7319 57.8667 31.39C57.8641 31.0483 57.7941 30.7104 57.6609 30.3958C57.5277 30.0811 57.3338 29.7958 57.0903 29.5562C56.8467 29.3165 56.5584 29.1273 56.2417 28.9993C55.925 28.8712 55.5862 28.8069 55.2447 28.81ZM61.5148 34.3033C61.0099 34.2998 60.5243 34.4968 60.1645 34.8512C59.8047 35.2055 59.6002 35.6882 59.5958 36.1933C59.5958 37.24 60.4553 38.0867 61.5148 38.0867C62.5742 38.0867 63.4371 37.24 63.4371 36.1933C63.4349 35.9429 63.3835 35.6954 63.2857 35.4649C63.1879 35.2344 63.0457 35.0255 62.8672 34.85C62.6887 34.6745 62.4774 34.5359 62.2453 34.4421C62.0133 34.3483 61.765 34.3011 61.5148 34.3033ZM64.1567 40.8433C63.9745 40.8416 63.7936 40.8758 63.6246 40.9441C63.4555 41.0124 63.3016 41.1133 63.1716 41.2412C63.0417 41.3691 62.9382 41.5214 62.8671 41.6893C62.796 41.8573 62.7588 42.0376 62.7575 42.22C62.7575 42.9767 63.3838 43.5933 64.1567 43.5933C64.923 43.5933 65.5527 42.9767 65.5527 42.22C65.5514 42.0376 65.5141 41.8573 65.4431 41.6893C65.372 41.5214 65.2685 41.3691 65.1385 41.2412C65.0085 41.1133 64.8546 41.0124 64.6856 40.9441C64.5165 40.8758 64.339 40.8416 64.1567 40.8433ZM73.7018 43.0033C72.3392 43.0033 71.2364 44.0933 71.2364 45.4367C71.2364 46.7767 72.3392 47.8633 73.7018 47.8633C75.0678 47.8633 76.1672 46.7767 76.1672 45.4333C76.1619 44.7841 75.8993 44.1636 75.437 43.7079C74.9748 43.2523 74.3507 42.9989 73.7018 43.0033ZM83.8832 45.9467C83.5445 45.944 83.2087 46.0082 82.8948 46.1354C82.581 46.2626 82.2952 46.4504 82.0539 46.6882C81.8126 46.9259 81.6205 47.2088 81.4885 47.5209C81.3564 47.8329 81.2871 48.1679 81.2845 48.5067C81.2845 49.92 82.4439 51.0667 83.8832 51.0667C85.3158 51.0667 86.4818 49.92 86.4818 48.5067C86.4792 48.1679 86.4099 47.8329 86.2779 47.5209C86.1459 47.2088 85.9538 46.9259 85.7125 46.6882C85.4711 46.4504 85.1854 46.2626 84.8715 46.1354C84.5577 46.0082 84.2218 45.944 83.8832 45.9467ZM81.3045 54.9867C80.9838 54.984 80.6657 55.0446 80.3684 55.165C80.0712 55.2853 79.8005 55.4631 79.5718 55.6881C79.3432 55.9132 79.1611 56.181 79.036 56.4765C78.9108 56.7719 78.8451 57.0891 78.8425 57.41C78.8425 58.75 79.9419 59.8333 81.3045 59.8333C82.6671 59.8333 83.7666 58.75 83.7666 57.41C83.764 57.0888 83.6981 56.7714 83.5727 56.4757C83.4474 56.1801 83.265 55.912 83.036 55.6869C82.807 55.4619 82.536 55.2842 82.2383 55.164C81.9406 55.0439 81.6255 54.9836 81.3045 54.9867ZM76.8735 62.5733C76.6027 62.5711 76.3341 62.6223 76.083 62.724C75.832 62.8257 75.6034 62.9758 75.4103 63.1659C75.2173 63.3559 75.0636 63.5822 74.9579 63.8317C74.8522 64.0812 74.7967 64.349 74.7946 64.62C74.7946 65.75 75.7241 66.6667 76.8702 66.6667C77.141 66.6689 77.4096 66.6177 77.6606 66.516C77.9117 66.4143 78.1402 66.2642 78.3333 66.0741C78.5263 65.8841 78.6801 65.6578 78.7857 65.4083C78.8914 65.1588 78.9469 64.891 78.9491 64.62C78.9469 64.349 78.8914 64.0812 78.7857 63.8317C78.6801 63.5822 78.5263 63.3559 78.3333 63.1659C78.1402 62.9758 77.9117 62.8257 77.6606 62.724C77.4096 62.6223 77.1443 62.5711 76.8735 62.5733ZM71.5529 68.21C71.0813 68.2073 70.6279 68.3918 70.292 68.7229C69.956 69.054 69.7649 69.5049 69.7605 69.9767C69.7605 70.9533 70.5601 71.7467 71.5529 71.7467C71.787 71.7489 72.0192 71.7049 72.2363 71.6173C72.4534 71.5297 72.6511 71.4002 72.8182 71.2361C72.9852 71.0721 73.1184 70.8767 73.2099 70.6612C73.3015 70.4457 73.3498 70.2142 73.352 69.98C73.3498 69.7458 73.3015 69.5143 73.2099 69.2988C73.1184 69.0833 72.9852 68.8879 72.8182 68.7238C72.6511 68.5598 72.4534 68.4303 72.2363 68.3427C72.0192 68.2551 71.787 68.2111 71.5529 68.2133V68.21ZM65.9358 72.3233C65.7352 72.3216 65.5361 72.3594 65.3501 72.4347C65.1641 72.5101 64.9947 72.6213 64.8518 72.7622C64.7088 72.9031 64.595 73.0708 64.5169 73.2557C64.4388 73.4407 64.3979 73.6392 64.3966 73.84C64.3966 74.6733 65.0863 75.3533 65.9358 75.3533C66.1362 75.3551 66.335 75.3173 66.5208 75.2422C66.7066 75.1671 66.8758 75.0562 67.0187 74.9156C67.1616 74.7751 67.2755 74.6078 67.3538 74.4232C67.4321 74.2387 67.4733 74.0405 67.475 73.84C67.4737 73.6392 67.4328 73.4407 67.3547 73.2557C67.2766 73.0708 67.1628 72.9031 67.0199 72.7622C66.8769 72.6213 66.7076 72.5101 66.5215 72.4347C66.3355 72.3594 66.1365 72.3216 65.9358 72.3233ZM59.5791 74.6467C59.3455 74.6449 59.1138 74.6892 58.8973 74.777C58.6808 74.8649 58.4836 74.9945 58.3172 75.1586C58.1508 75.3226 58.0182 75.5179 57.9272 75.7332C57.8362 75.9485 57.7885 76.1796 57.7867 76.4133C57.7867 77.3867 58.5863 78.1767 59.5791 78.1767C59.8126 78.1784 60.0441 78.1341 60.2605 78.0462C60.4768 77.9583 60.6737 77.8287 60.8398 77.6646C61.006 77.5005 61.1382 77.3052 61.2289 77.0899C61.3195 76.8746 61.3669 76.6436 61.3682 76.41C61.3682 75.4367 60.5686 74.6467 59.5791 74.6467ZM52.1063 75.8467C51.8368 75.8449 51.5696 75.8963 51.3199 75.9979C51.0703 76.0994 50.843 76.2492 50.6512 76.4386C50.4594 76.6281 50.3068 76.8534 50.202 77.1019C50.0973 77.3504 50.0425 77.617 50.0407 77.8867C50.0407 79.01 50.9669 79.9233 52.1063 79.9233C52.3761 79.926 52.6438 79.8754 52.894 79.7744C53.1442 79.6734 53.3721 79.5241 53.5645 79.3349C53.757 79.1458 53.9103 78.9205 54.0157 78.672C54.1211 78.4235 54.1764 78.1566 54.1786 77.8867C54.1768 77.6164 54.1218 77.3492 54.0166 77.1003C53.9115 76.8515 53.7582 76.6258 53.5657 76.4363C53.3732 76.2467 53.1452 76.0971 52.8948 75.9959C52.6443 75.8948 52.3764 75.844 52.1063 75.8467ZM43.5608 75.0133C43.2099 75.0107 42.8619 75.0772 42.5367 75.2092C42.2115 75.3411 41.9155 75.5358 41.6655 75.7822C41.4156 76.0286 41.2165 76.3218 41.0798 76.6451C40.9431 76.9685 40.8714 77.3156 40.8688 77.6667C40.8688 79.13 42.0749 80.3167 43.5608 80.3167C45.0466 80.3167 46.2527 79.13 46.2527 77.6667C46.2501 77.3157 46.1783 76.9688 46.0416 76.6456C45.9049 76.3225 45.7058 76.0295 45.4558 75.7833C45.2058 75.5372 44.9097 75.3428 44.5845 75.2113C44.2594 75.0797 43.9115 75.0103 43.5608 75.0133ZM34.5754 71.8367C33.7392 71.8305 32.9347 72.1566 32.3388 72.7435C31.7428 73.3304 31.4041 74.13 31.3971 74.9667C31.3971 76.6967 32.8197 78.1 34.5754 78.1C36.3312 78.1 37.7538 76.6967 37.7538 74.9667C37.7507 74.5521 37.6661 74.1422 37.5047 73.7604C37.3433 73.3786 37.1084 73.0323 36.8132 72.7414C36.5181 72.4504 36.1685 72.2205 35.7846 72.0647C35.4006 71.9089 34.9897 71.8303 34.5754 71.8333V71.8367ZM26.6129 65.9567C24.5539 65.9567 22.8815 67.6033 22.8815 69.6333C22.8815 71.6667 24.5539 73.31 26.6129 73.31C28.6785 73.31 30.3476 71.6633 30.3476 69.6333C30.3476 67.6 28.6751 65.9567 26.6129 65.9567ZM20.0096 57.0833C17.7775 57.0833 15.9684 58.8667 15.9684 61.0633C15.9684 63.2633 17.7775 65.0467 20.0096 65.0467C22.2418 65.0467 24.0542 63.2633 24.0542 61.0633C24.0542 58.8633 22.2451 57.0833 20.0096 57.0833ZM16.2582 47.85C15.8435 47.8465 15.4321 47.9247 15.0475 48.0803C14.663 48.2359 14.3129 48.4657 14.0171 48.7567C13.7213 49.0476 13.4858 49.394 13.3238 49.7761C13.1619 50.1581 13.0767 50.5684 13.0732 50.9833C13.0732 52.7167 14.4992 54.1167 16.2582 54.1167C17.0956 54.1229 17.9013 53.7965 18.4984 53.209C19.0955 52.6216 19.4353 51.8211 19.4433 50.9833C19.4433 49.25 18.0173 47.85 16.2582 47.85ZM16.0783 38.9267C15.3915 38.9213 14.7306 39.189 14.2408 39.6709C13.7511 40.1528 13.4725 40.8094 13.4664 41.4967C13.4664 42.92 14.6324 44.07 16.0783 44.07C16.4187 44.0726 16.7563 44.0082 17.0718 43.8803C17.3873 43.7524 17.6745 43.5636 17.917 43.3246C18.1596 43.0856 18.3527 42.8012 18.4854 42.4876C18.6181 42.1739 18.6877 41.8372 18.6903 41.4967C18.6842 40.8094 18.4056 40.1528 17.9159 39.6709C17.4261 39.189 16.7652 38.9213 16.0783 38.9267ZM18.6437 30.1667C18.3227 30.164 18.0043 30.2247 17.7068 30.3453C17.4093 30.4659 17.1385 30.6439 16.9098 30.8693C16.6811 31.0947 16.4991 31.363 16.3742 31.6588C16.2492 31.9546 16.1838 32.2722 16.1816 32.5933C16.1816 33.93 17.281 35.0167 18.647 35.0167C20.0063 35.0167 21.1091 33.93 21.1091 32.5933C21.1064 32.272 21.0406 31.9544 20.9153 31.6585C20.79 31.3627 20.6076 31.0945 20.3787 30.8691C20.1498 30.6438 19.8787 30.4658 19.581 30.3452C19.2833 30.2247 18.9648 30.164 18.6437 30.1667ZM23.088 23.35C22.8178 23.3478 22.5498 23.3989 22.2993 23.5005C22.0489 23.602 21.8209 23.752 21.6284 23.9418C21.436 24.1315 21.2828 24.3574 21.1777 24.6065C21.0725 24.8556 21.0175 25.123 21.0158 25.3933C21.0158 26.52 21.9453 27.4333 23.088 27.4333C23.358 27.4355 23.6257 27.3845 23.876 27.2832C24.1262 27.1818 24.354 27.0322 24.5465 26.8428C24.7389 26.6533 24.8921 26.4278 24.9975 26.1791C25.1028 25.9304 25.1581 25.6634 25.1603 25.3933C25.1585 25.123 25.1035 24.8556 24.9984 24.6065C24.8933 24.3574 24.7401 24.1315 24.5476 23.9418C24.3552 23.752 24.1272 23.602 23.8767 23.5005C23.6263 23.3989 23.3583 23.3478 23.088 23.35ZM28.3986 18.27C28.1654 18.2682 27.9342 18.3125 27.718 18.4001C27.5019 18.4878 27.3052 18.6172 27.1391 18.7809C26.9729 18.9447 26.8407 19.1396 26.7498 19.3544C26.6589 19.5693 26.6113 19.8 26.6095 20.0333C26.6095 21.0067 27.4091 21.7967 28.3986 21.7967C28.6318 21.7984 28.8631 21.7542 29.0792 21.6665C29.2953 21.5789 29.492 21.4495 29.6582 21.2857C29.8243 21.122 29.9566 20.9271 30.0474 20.7122C30.1383 20.4973 30.1859 20.2667 30.1877 20.0333C30.1859 19.8 30.1383 19.5693 30.0474 19.3544C29.9566 19.1396 29.8243 18.9447 29.6582 18.7809C29.492 18.6172 29.2953 18.4878 29.0792 18.4001C28.8631 18.3125 28.6318 18.2682 28.3986 18.27ZM34.0157 14.64C33.6098 14.6373 33.2195 14.7959 32.9303 15.0808C32.6411 15.3658 32.4767 15.7539 32.4732 16.16C32.4776 16.5655 32.6423 16.9528 32.9314 17.237C33.2205 17.5212 33.6104 17.6793 34.0157 17.6767C34.421 17.6793 34.8109 17.5212 35.1 17.237C35.3891 16.9528 35.5538 16.5655 35.5582 16.16C35.5547 15.7539 35.3903 15.3658 35.1011 15.0808C34.8119 14.7959 34.4216 14.6373 34.0157 14.64ZM40.3791 11.8433C40.1463 11.8416 39.9155 11.8857 39.6998 11.9732C39.4841 12.0607 39.2877 12.1899 39.1219 12.3533C38.956 12.5167 38.824 12.7112 38.7333 12.9257C38.6426 13.1402 38.5951 13.3705 38.5933 13.6033C38.5933 14.5733 39.3929 15.3633 40.3824 15.3633C40.8522 15.366 41.3039 15.1823 41.6386 14.8524C41.9733 14.5225 42.1637 14.0734 42.1681 13.6033C42.1664 13.3705 42.1188 13.1402 42.0281 12.9257C41.9375 12.7112 41.8054 12.5167 41.6396 12.3533C41.4738 12.1899 41.2774 12.0607 41.0617 11.9732C40.846 11.8857 40.6152 11.8416 40.3824 11.8433H40.3791ZM47.8285 10.0767C47.2827 10.0731 46.7578 10.2862 46.3687 10.6692C45.9797 11.0522 45.7582 11.5739 45.7529 12.12C45.7529 13.25 46.6858 14.1633 47.8285 14.1633C48.3749 14.1678 48.9007 13.9551 49.2905 13.572C49.6803 13.1889 49.9022 12.6667 49.9075 12.12C49.9053 11.849 49.8498 11.5812 49.7441 11.3317C49.6385 11.0822 49.4847 10.8559 49.2917 10.6659C49.0986 10.4758 48.8701 10.3257 48.619 10.224C48.368 10.1223 48.0994 10.0745 47.8285 10.0767ZM56.3908 9.70333C54.9015 9.70333 53.6955 10.89 53.6955 12.3533C53.6955 13.8167 54.9015 15.01 56.3908 15.01C57.88 15.01 59.086 13.82 59.086 12.3533C59.086 10.8867 57.88 9.70333 56.3908 9.70333ZM65.1262 11.7367C64.2891 11.7313 63.484 12.058 62.887 12.6453C62.2901 13.2325 61.95 14.0325 61.9412 14.87C61.9412 16.6033 63.3672 18.01 65.1262 18.01C65.5414 18.0131 65.9532 17.9343 66.338 17.7782C66.7227 17.622 67.073 17.3916 67.3688 17.1C67.6645 16.8084 67.9 16.4614 68.0617 16.0788C68.2234 15.6962 68.3082 15.2854 68.3113 14.87C68.3033 14.0322 67.9635 13.2317 67.3664 12.6443C66.7693 12.0569 65.9636 11.7304 65.1262 11.7367ZM73.3753 16.6667C71.3097 16.6667 69.6372 18.3167 69.6372 20.3467C69.6372 22.3767 71.313 24.03 73.3753 24.03C75.4409 24.03 77.1134 22.38 77.1134 20.3467C77.1134 18.3133 75.4409 16.6667 73.3753 16.6667ZM79.9319 24.96C77.6997 24.96 75.8873 26.7433 75.8873 28.94C75.8873 31.14 77.6964 32.9233 79.9319 32.9233C82.1674 32.9233 83.9765 31.14 83.9765 28.94C83.9765 26.74 82.1674 24.96 79.9319 24.96ZM83.6866 35.89C81.9309 35.89 80.5083 37.29 80.5083 39.0233C80.5083 40.7567 81.9309 42.1533 83.6866 42.1533C85.4457 42.1533 86.8683 40.7533 86.8683 39.02C86.8683 37.2867 85.4457 35.8867 83.6866 35.8867V35.89ZM99.9482 45.0067C99.9482 47.8867 97.5794 50.22 94.6509 50.22C91.7291 50.22 89.3603 47.8867 89.3603 45.0067C89.3603 42.1267 91.7291 39.7933 94.6543 39.7933C97.5794 39.7933 99.9482 42.1267 99.9482 45.0067Z" fill="#FA6400"/>
</svg>
