<?xml version="1.0" encoding="UTF-8"?>
<!-- Generated by Pixelmator Pro 3.7.1 -->
<svg width="69" height="69" viewBox="0 0 69 69" xmlns="http://www.w3.org/2000/svg">
    <g id="Layer2">
        <path id="circle2" fill="#f74843" stroke="none" d="M 69.199997 34.399998 C 69.199997 53.509052 53.709053 69 34.599998 69 C 15.490948 69 -0 53.509052 0 34.399998 C 0 15.290947 15.490948 -0.199997 34.599998 -0.199997 C 53.709053 -0.199997 69.199997 15.290947 69.199997 34.399998 Z"/>
    </g>
    <g id="Layer3">
        <path id="path5" fill="#ffffff" stroke="none" d="M 14.4 34.099998 C 14.4 34.099998 31.700001 27 37.700001 24.5 C 40 23.5 47.799999 20.299999 47.799999 20.299999 C 47.799999 20.299999 51.400002 18.900002 51.099998 22.299999 C 51 23.700001 50.200001 28.599998 49.400002 33.899998 C 48.200001 41.399998 46.900002 49.599998 46.900002 49.599998 C 46.900002 49.599998 46.700001 51.899998 45 52.299999 C 43.299999 52.700001 40.5 50.899998 40 50.5 C 39.599998 50.200001 32.5 45.700001 29.9 43.5 C 29.200001 42.899998 28.4 41.700001 30 40.299999 C 33.599998 37 37.900002 32.899998 40.5 30.299999 C 41.700001 29.099998 42.900002 26.299999 37.900002 29.700001 C 30.799999 34.599998 23.799999 39.200001 23.799999 39.200001 C 23.799999 39.200001 22.200001 40.200001 19.200001 39.299999 C 16.200001 38.399998 12.7 37.200001 12.7 37.200001 C 12.7 37.200001 10.3 35.700001 14.4 34.099998 Z"/>
    </g>
</svg>
